<mxfile host="app.diagrams.net" agent="Mozilla/5.0 (Windows NT 10.0; Win64; x64; rv:133.0) Gecko/20100101 Firefox/133.0" version="24.9.3">
  <diagram name="Page-1" id="qcOnbqE5XZc86ATT3mI3">
    <mxGraphModel dx="576" dy="315" grid="1" gridSize="10" guides="1" tooltips="1" connect="1" arrows="1" fold="1" page="1" pageScale="1" pageWidth="850" pageHeight="1100" math="0" shadow="0">
      <root>
        <mxCell id="0" />
        <mxCell id="1" parent="0" />
        <mxCell id="dRv5yiR1hizX2D328beG-1" value="" style="ellipse;whiteSpace=wrap;html=1;aspect=fixed;strokeColor=#67AB9F;" vertex="1" parent="1">
          <mxGeometry x="240" y="400" width="110" height="110" as="geometry" />
        </mxCell>
        <mxCell id="dRv5yiR1hizX2D328beG-2" value="" style="ellipse;whiteSpace=wrap;html=1;aspect=fixed;strokeColor=#7EA6E0;" vertex="1" parent="1">
          <mxGeometry x="532.5" y="400" width="110" height="110" as="geometry" />
        </mxCell>
        <mxCell id="dRv5yiR1hizX2D328beG-3" value="" style="ellipse;whiteSpace=wrap;html=1;aspect=fixed;strokeColor=#EA6B66;" vertex="1" parent="1">
          <mxGeometry x="385" y="560" width="110" height="110" as="geometry" />
        </mxCell>
        <mxCell id="dRv5yiR1hizX2D328beG-4" value="S:8081" style="rounded=0;whiteSpace=wrap;html=1;fontFamily=Lucida Console;fontSize=10;strokeColor=#EA6B66;" vertex="1" parent="1">
          <mxGeometry x="360" y="630" width="50" height="20" as="geometry" />
        </mxCell>
        <mxCell id="dRv5yiR1hizX2D328beG-5" value="S:8080" style="rounded=0;whiteSpace=wrap;html=1;fontFamily=Lucida Console;fontSize=10;strokeColor=#EA6B66;" vertex="1" parent="1">
          <mxGeometry x="470" y="630" width="50" height="20" as="geometry" />
        </mxCell>
        <mxCell id="dRv5yiR1hizX2D328beG-6" value="S:8080" style="rounded=0;whiteSpace=wrap;html=1;fontFamily=Lucida Console;fontSize=10;strokeColor=#7EA6E0;" vertex="1" parent="1">
          <mxGeometry x="520" y="410" width="50" height="20" as="geometry" />
        </mxCell>
        <mxCell id="dRv5yiR1hizX2D328beG-7" value="S:8080" style="rounded=0;whiteSpace=wrap;html=1;fontFamily=Lucida Console;fontSize=10;strokeColor=#67AB9F;" vertex="1" parent="1">
          <mxGeometry x="250" y="490" width="50" height="20" as="geometry" />
        </mxCell>
        <mxCell id="dRv5yiR1hizX2D328beG-8" value="S:8081" style="rounded=0;whiteSpace=wrap;html=1;fontFamily=Lucida Console;fontSize=10;strokeColor=#67AB9F;" vertex="1" parent="1">
          <mxGeometry x="310" y="410" width="50" height="20" as="geometry" />
        </mxCell>
        <mxCell id="dRv5yiR1hizX2D328beG-9" value="S:8081" style="rounded=0;whiteSpace=wrap;html=1;fontFamily=Lucida Console;fontSize=10;strokeColor=#7EA6E0;" vertex="1" parent="1">
          <mxGeometry x="571.25" y="490" width="50" height="20" as="geometry" />
        </mxCell>
        <mxCell id="dRv5yiR1hizX2D328beG-10" value="CR" style="rounded=0;whiteSpace=wrap;html=1;fontFamily=Lucida Console;fontSize=10;strokeColor=#67AB9F;" vertex="1" parent="1">
          <mxGeometry x="325" y="480" width="25" height="20" as="geometry" />
        </mxCell>
        <mxCell id="dRv5yiR1hizX2D328beG-11" value="CL" style="rounded=0;whiteSpace=wrap;html=1;fontFamily=Lucida Console;fontSize=10;strokeColor=#67AB9F;" vertex="1" parent="1">
          <mxGeometry x="335" y="445" width="25" height="20" as="geometry" />
        </mxCell>
        <mxCell id="dRv5yiR1hizX2D328beG-12" value="CL" style="rounded=0;whiteSpace=wrap;html=1;fontFamily=Lucida Console;fontSize=10;strokeColor=#EA6B66;" vertex="1" parent="1">
          <mxGeometry x="400" y="560" width="25" height="20" as="geometry" />
        </mxCell>
        <mxCell id="dRv5yiR1hizX2D328beG-13" value="CR" style="rounded=0;whiteSpace=wrap;html=1;fontFamily=Lucida Console;fontSize=10;strokeColor=#7EA6E0;" vertex="1" parent="1">
          <mxGeometry x="522.5" y="445" width="25" height="20" as="geometry" />
        </mxCell>
        <mxCell id="dRv5yiR1hizX2D328beG-14" value="CR" style="rounded=0;whiteSpace=wrap;html=1;fontFamily=Lucida Console;fontSize=10;strokeColor=#EA6B66;" vertex="1" parent="1">
          <mxGeometry x="452.5" y="560" width="25" height="20" as="geometry" />
        </mxCell>
        <mxCell id="dRv5yiR1hizX2D328beG-15" value="CL" style="rounded=0;whiteSpace=wrap;html=1;fontFamily=Lucida Console;fontSize=10;strokeColor=#7EA6E0;" vertex="1" parent="1">
          <mxGeometry x="532.5" y="480" width="25" height="20" as="geometry" />
        </mxCell>
        <mxCell id="dRv5yiR1hizX2D328beG-16" value="" style="endArrow=classic;html=1;rounded=0;entryX=0.5;entryY=1;entryDx=0;entryDy=0;exitX=1;exitY=0.5;exitDx=0;exitDy=0;strokeColor=#EA6B66;" edge="1" parent="1" source="dRv5yiR1hizX2D328beG-14" target="dRv5yiR1hizX2D328beG-9">
          <mxGeometry width="50" height="50" relative="1" as="geometry">
            <mxPoint x="477.5" y="570" as="sourcePoint" />
            <mxPoint x="527.5" y="520" as="targetPoint" />
          </mxGeometry>
        </mxCell>
        <mxCell id="dRv5yiR1hizX2D328beG-17" value="" style="endArrow=classic;html=1;rounded=0;entryX=0.5;entryY=1;entryDx=0;entryDy=0;exitX=0;exitY=0.5;exitDx=0;exitDy=0;strokeColor=#EA6B66;" edge="1" parent="1" source="dRv5yiR1hizX2D328beG-12" target="dRv5yiR1hizX2D328beG-7">
          <mxGeometry width="50" height="50" relative="1" as="geometry">
            <mxPoint x="390" y="570" as="sourcePoint" />
            <mxPoint x="497" y="485" as="targetPoint" />
          </mxGeometry>
        </mxCell>
        <mxCell id="dRv5yiR1hizX2D328beG-18" value="" style="endArrow=classic;html=1;rounded=0;entryX=0.25;entryY=0;entryDx=0;entryDy=0;exitX=0.5;exitY=1;exitDx=0;exitDy=0;strokeColor=#67AB9F;" edge="1" parent="1" source="dRv5yiR1hizX2D328beG-10" target="dRv5yiR1hizX2D328beG-4">
          <mxGeometry width="50" height="50" relative="1" as="geometry">
            <mxPoint x="350" y="600" as="sourcePoint" />
            <mxPoint x="225" y="550" as="targetPoint" />
          </mxGeometry>
        </mxCell>
        <mxCell id="dRv5yiR1hizX2D328beG-19" value="" style="endArrow=classic;html=1;rounded=0;entryX=0;entryY=0.5;entryDx=0;entryDy=0;exitX=1;exitY=0.5;exitDx=0;exitDy=0;strokeColor=#67AB9F;" edge="1" parent="1" source="dRv5yiR1hizX2D328beG-11" target="dRv5yiR1hizX2D328beG-6">
          <mxGeometry width="50" height="50" relative="1" as="geometry">
            <mxPoint x="375" y="455" as="sourcePoint" />
            <mxPoint x="410" y="565" as="targetPoint" />
          </mxGeometry>
        </mxCell>
        <mxCell id="dRv5yiR1hizX2D328beG-20" value="" style="endArrow=classic;html=1;rounded=0;entryX=1;entryY=0.5;entryDx=0;entryDy=0;exitX=0;exitY=0.5;exitDx=0;exitDy=0;strokeColor=#7EA6E0;" edge="1" parent="1" source="dRv5yiR1hizX2D328beG-13" target="dRv5yiR1hizX2D328beG-8">
          <mxGeometry width="50" height="50" relative="1" as="geometry">
            <mxPoint x="370" y="475" as="sourcePoint" />
            <mxPoint x="530" y="440" as="targetPoint" />
          </mxGeometry>
        </mxCell>
        <mxCell id="dRv5yiR1hizX2D328beG-21" value="" style="endArrow=classic;html=1;rounded=0;entryX=0.75;entryY=0;entryDx=0;entryDy=0;exitX=0.5;exitY=1;exitDx=0;exitDy=0;strokeColor=#7EA6E0;" edge="1" parent="1" source="dRv5yiR1hizX2D328beG-15" target="dRv5yiR1hizX2D328beG-5">
          <mxGeometry width="50" height="50" relative="1" as="geometry">
            <mxPoint x="533" y="475" as="sourcePoint" />
            <mxPoint x="370" y="435" as="targetPoint" />
          </mxGeometry>
        </mxCell>
        <mxCell id="dRv5yiR1hizX2D328beG-22" value="Logik" style="rounded=0;whiteSpace=wrap;html=1;fillColor=none;strokeColor=#333333;fontFamily=Lucida Console;fontSize=10;" vertex="1" parent="1">
          <mxGeometry x="262.5" y="440" width="47.5" height="25" as="geometry" />
        </mxCell>
        <mxCell id="dRv5yiR1hizX2D328beG-23" value="" style="endArrow=classic;html=1;rounded=0;entryX=0.75;entryY=0;entryDx=0;entryDy=0;exitX=0;exitY=0.5;exitDx=0;exitDy=0;strokeColor=#333333;" edge="1" parent="1" source="dRv5yiR1hizX2D328beG-8" target="dRv5yiR1hizX2D328beG-22">
          <mxGeometry width="50" height="50" relative="1" as="geometry">
            <mxPoint x="350" y="400" as="sourcePoint" />
            <mxPoint x="510" y="365" as="targetPoint" />
          </mxGeometry>
        </mxCell>
        <mxCell id="dRv5yiR1hizX2D328beG-24" value="" style="endArrow=classic;html=1;rounded=0;entryX=0;entryY=0.5;entryDx=0;entryDy=0;exitX=1;exitY=0.25;exitDx=0;exitDy=0;strokeColor=#333333;" edge="1" parent="1" source="dRv5yiR1hizX2D328beG-22" target="dRv5yiR1hizX2D328beG-11">
          <mxGeometry width="50" height="50" relative="1" as="geometry">
            <mxPoint x="320" y="430" as="sourcePoint" />
            <mxPoint x="308" y="450" as="targetPoint" />
          </mxGeometry>
        </mxCell>
        <mxCell id="dRv5yiR1hizX2D328beG-25" value="" style="endArrow=classic;html=1;rounded=0;entryX=0.75;entryY=1;entryDx=0;entryDy=0;exitX=0.75;exitY=0;exitDx=0;exitDy=0;strokeColor=#333333;" edge="1" parent="1" source="dRv5yiR1hizX2D328beG-7" target="dRv5yiR1hizX2D328beG-22">
          <mxGeometry width="50" height="50" relative="1" as="geometry">
            <mxPoint x="320" y="463" as="sourcePoint" />
            <mxPoint x="345" y="465" as="targetPoint" />
          </mxGeometry>
        </mxCell>
        <mxCell id="dRv5yiR1hizX2D328beG-26" value="" style="endArrow=classic;html=1;rounded=0;entryX=0.25;entryY=0;entryDx=0;entryDy=0;exitX=1;exitY=0.75;exitDx=0;exitDy=0;strokeColor=#333333;" edge="1" parent="1" source="dRv5yiR1hizX2D328beG-22" target="dRv5yiR1hizX2D328beG-10">
          <mxGeometry width="50" height="50" relative="1" as="geometry">
            <mxPoint x="298" y="500" as="sourcePoint" />
            <mxPoint x="308" y="475" as="targetPoint" />
          </mxGeometry>
        </mxCell>
        <mxCell id="dRv5yiR1hizX2D328beG-27" value="Logik" style="rounded=0;whiteSpace=wrap;html=1;fillColor=none;strokeColor=#333333;fontFamily=Lucida Console;fontSize=10;" vertex="1" parent="1">
          <mxGeometry x="572.5" y="440" width="47.5" height="25" as="geometry" />
        </mxCell>
        <mxCell id="dRv5yiR1hizX2D328beG-28" value="" style="endArrow=classic;html=1;rounded=0;entryX=0.25;entryY=0;entryDx=0;entryDy=0;exitX=1;exitY=0.5;exitDx=0;exitDy=0;strokeColor=#333333;" edge="1" parent="1" source="dRv5yiR1hizX2D328beG-6" target="dRv5yiR1hizX2D328beG-27">
          <mxGeometry width="50" height="50" relative="1" as="geometry">
            <mxPoint x="603.5" y="410" as="sourcePoint" />
            <mxPoint x="591.5" y="430" as="targetPoint" />
          </mxGeometry>
        </mxCell>
        <mxCell id="dRv5yiR1hizX2D328beG-29" value="" style="endArrow=classic;html=1;rounded=0;entryX=1;entryY=0.5;entryDx=0;entryDy=0;exitX=0;exitY=0.25;exitDx=0;exitDy=0;strokeColor=#333333;" edge="1" parent="1" source="dRv5yiR1hizX2D328beG-27" target="dRv5yiR1hizX2D328beG-13">
          <mxGeometry width="50" height="50" relative="1" as="geometry">
            <mxPoint x="580" y="430" as="sourcePoint" />
            <mxPoint x="594" y="450" as="targetPoint" />
          </mxGeometry>
        </mxCell>
        <mxCell id="dRv5yiR1hizX2D328beG-30" value="" style="endArrow=classic;html=1;rounded=0;entryX=0.75;entryY=0;entryDx=0;entryDy=0;exitX=0;exitY=0.75;exitDx=0;exitDy=0;strokeColor=#333333;" edge="1" parent="1" source="dRv5yiR1hizX2D328beG-27" target="dRv5yiR1hizX2D328beG-15">
          <mxGeometry width="50" height="50" relative="1" as="geometry">
            <mxPoint x="583" y="456" as="sourcePoint" />
            <mxPoint x="558" y="465" as="targetPoint" />
          </mxGeometry>
        </mxCell>
        <mxCell id="dRv5yiR1hizX2D328beG-31" value="" style="endArrow=classic;html=1;rounded=0;entryX=0.25;entryY=1;entryDx=0;entryDy=0;exitX=0.5;exitY=0;exitDx=0;exitDy=0;strokeColor=#333333;" edge="1" parent="1" source="dRv5yiR1hizX2D328beG-9" target="dRv5yiR1hizX2D328beG-27">
          <mxGeometry width="50" height="50" relative="1" as="geometry">
            <mxPoint x="583" y="469" as="sourcePoint" />
            <mxPoint x="561" y="490" as="targetPoint" />
          </mxGeometry>
        </mxCell>
        <mxCell id="dRv5yiR1hizX2D328beG-32" value="Logik" style="rounded=0;whiteSpace=wrap;html=1;fillColor=none;strokeColor=#333333;fontFamily=Lucida Console;fontSize=10;" vertex="1" parent="1">
          <mxGeometry x="416.25" y="595" width="47.5" height="25" as="geometry" />
        </mxCell>
        <mxCell id="dRv5yiR1hizX2D328beG-33" value="" style="endArrow=classic;html=1;rounded=0;entryX=0.75;entryY=1;entryDx=0;entryDy=0;exitX=0;exitY=0.5;exitDx=0;exitDy=0;strokeColor=#333333;" edge="1" parent="1" source="dRv5yiR1hizX2D328beG-5" target="dRv5yiR1hizX2D328beG-32">
          <mxGeometry width="50" height="50" relative="1" as="geometry">
            <mxPoint x="538" y="630" as="sourcePoint" />
            <mxPoint x="552" y="650" as="targetPoint" />
          </mxGeometry>
        </mxCell>
        <mxCell id="dRv5yiR1hizX2D328beG-34" value="" style="endArrow=classic;html=1;rounded=0;entryX=0.25;entryY=1;entryDx=0;entryDy=0;exitX=1;exitY=0.5;exitDx=0;exitDy=0;strokeColor=#333333;" edge="1" parent="1" source="dRv5yiR1hizX2D328beG-4" target="dRv5yiR1hizX2D328beG-32">
          <mxGeometry width="50" height="50" relative="1" as="geometry">
            <mxPoint x="480" y="640" as="sourcePoint" />
            <mxPoint x="462" y="625" as="targetPoint" />
          </mxGeometry>
        </mxCell>
        <mxCell id="dRv5yiR1hizX2D328beG-35" value="" style="endArrow=classic;html=1;rounded=0;entryX=0.5;entryY=1;entryDx=0;entryDy=0;exitX=0.25;exitY=0;exitDx=0;exitDy=0;strokeColor=#333333;" edge="1" parent="1" source="dRv5yiR1hizX2D328beG-32" target="dRv5yiR1hizX2D328beG-12">
          <mxGeometry width="50" height="50" relative="1" as="geometry">
            <mxPoint x="420" y="640" as="sourcePoint" />
            <mxPoint x="438" y="625" as="targetPoint" />
          </mxGeometry>
        </mxCell>
        <mxCell id="dRv5yiR1hizX2D328beG-36" value="" style="endArrow=classic;html=1;rounded=0;entryX=0.5;entryY=1;entryDx=0;entryDy=0;exitX=0.75;exitY=0;exitDx=0;exitDy=0;strokeColor=#333333;" edge="1" parent="1" source="dRv5yiR1hizX2D328beG-32" target="dRv5yiR1hizX2D328beG-14">
          <mxGeometry width="50" height="50" relative="1" as="geometry">
            <mxPoint x="438" y="600" as="sourcePoint" />
            <mxPoint x="423" y="590" as="targetPoint" />
          </mxGeometry>
        </mxCell>
      </root>
    </mxGraphModel>
  </diagram>
</mxfile>
